<?xml version="1.0" encoding="UTF-8"?>
<svg width="700pt" height="700pt" version="1.1" viewBox="0 0 700 700" xmlns="http://www.w3.org/2000/svg" xmlns:xlink="http://www.w3.org/1999/xlink">
 
 <g>
  <path fill="green" d="m490.02 99.77c-34.027 0-61.609-27.586-61.609-61.609 0-5.3555 0.75-10.516 2.0312-15.469-14.824 11.258-24.438 29.008-24.438 49.062 0 34.027 27.586 61.609 61.609 61.609 28.695 0 52.719-19.629 59.586-46.156-10.336 7.8477-23.191 12.562-37.18 12.562z"/>
  <path fill="green" d="m618.86 481.58h-156.17v-12.152h144.91c1.6406 0 3.1641-0.37891 4.5547-1.0039 0.011718-0.003906 0.023437 0 0.039062-0.003906 0.20312-0.089844 0.32031-0.26953 0.51562-0.36328 1.082-0.56641 2.1016-1.2109 2.9297-2.082 0.62109-0.63672 1.0078-1.418 1.4492-2.1719 0.26172-0.44922 0.62109-0.82422 0.81641-1.3086 1.1367-2.7266 1.2383-5.875-0.050782-8.7852l-44.828-100.83c-0.085937-0.19531-0.25781-0.3125-0.35156-0.5l-9.7734-195.45c6.4805-1.5508 11.145-5.6523 11.145-10.504 0-6.1836-7.5195-11.199-16.793-11.199-9.2969 0-16.805 5.0195-16.805 11.199 0 4.8555 4.6523 8.9492 11.137 10.5l-4.3555 78.484c-0.56641 0.24609-1.1758 0.33203-1.707 0.67578-1.1406 0.73828-28.105 17.898-54.898 0.035157-4.4531-2.9727-8.5-5.7344-12.27-8.3164-24.809-16.941-39.777-27.172-72.336-27.172l-112.02-0.003906c-32.555 0-47.523 10.219-72.312 27.16-3.7734 2.582-7.8359 5.3555-12.293 8.3281-26.691 17.809-53.535 0.86328-54.879-0.023437-0.53906-0.35938-1.1523-0.44922-1.7266-0.69922l-4.3555-78.473c6.4805-1.5586 11.137-5.6523 11.137-10.5 0-6.1836-7.5195-11.199-16.801-11.199-9.2852 0-16.805 5.0195-16.805 11.199 0 4.8555 4.6602 8.9492 11.148 10.504l-9.7773 195.47c-0.09375 0.17969-0.25781 0.29688-0.33984 0.48047l-44.82 100.83c-0.62891 1.3984-1.0195 2.9297-1.0195 4.5742 0 1.3281 0.33203 2.5664 0.76172 3.7461 0.027344 0.074219 0.015625 0.14453 0.042969 0.21875 0.5 1.293 1.2422 2.4414 2.1602 3.4492 0.042969 0.050781 0.066406 0.11719 0.11328 0.16797 2.0391 2.168 4.8789 3.5625 8.0703 3.5625h145.02v11.816h-156.17c-6.1328 0-11.145 5.3477-11.145 11.48 0 6.1328 5.0195 11.145 11.145 11.145h157c0.80078 2.625 2.6562 4.9297 5.1797 6.3555 1.0039 0.55859 25.414 14.379 50.719 14.379 19.285 0 39.344 0 47.039 8.6953 0.11328 0.22266 0.33594 0.22266 0.55469 0.44922 0.22266 0.22266 0.33594 0.44922 0.55469 0.66797 0.55469 0.55469 1.3398 0.77734 2.0039 1.2266 0.44922 0.22266 0.89063 0.55859 1.3398 0.77734 1.4492 0.55859 2.9023 0.89062 4.457 0.89062 1.5586 0 3.0078-0.33594 4.457-0.89062 0.55469-0.22266 0.89062-0.55469 1.3398-0.77734 0.66797-0.44922 1.4492-0.66797 2.0039-1.2266 0.22266-0.22266 0.33594-0.44922 0.55469-0.66797 0.22266-0.22266 0.44922-0.22266 0.66797-0.44922 7.5781-8.6953 27.641-8.6953 47.039-8.6953 25.188 0 49.598-13.82 50.719-14.379 2.3906-1.3945 4.0938-3.7422 4.9375-6.3555h157.14c6.1328 0 11.145-5.0195 11.145-11.145 0-6.1211-5.0195-11.137-11.145-11.137zm-156.17-56.957h13.379c14.855 0 27.418 9.7344 30.25 22.52h-43.625l0.003906-22.52zm-7.6875-89.617c-4.6797-1.668-9.918-0.33594-13.156 3.3438-0.11328 0.11328-8.25 8.4727-24.188 8.6914 2.6758-17.836 16.496-31.434 33.105-31.434 18.613 0 33.66 16.945 33.66 37.789 0 16.051-9.0273 29.871-21.734 35.223v-42.469c0-4.9062-3.0078-9.3633-7.6875-11.145zm105.57 44.754 29.953 67.379h-61.879c-2.7344-23.141-22.023-41.473-46.641-44.219 7.9922-5.8594 14.531-13.836 18.844-23.234 0.125 0.003906 0.23047 0.074218 0.35938 0.074218zm-421.02-0.26953c0.46094 0.054688 0.85547 0.26953 1.3281 0.26953h80.246c4.6133 6.5508 10 12.422 16.184 17.219v4.2344h-13.707c-14.043 0.11328-27.418 5.7969-37.453 16.051-8.1367 8.2305-13.145 18.859-14.684 29.875h-61.988zm54.43 67.648c1.3008-5.2188 4.0039-10.191 7.9961-14.27 5.9062-6.0195 13.598-9.3633 21.734-9.3633h13.598v23.633zm144.09 57.625c-2.3398-0.66797-4.6797-1.3398-7.1328-1.7852-11.48-2.2305-24.297-2.2305-36.895-2.2305-12.594 0-25.637-5.0195-32.996-8.25l0.003906-125.17c6.0195 2.1172 13.266 3.5664 21.734 3.5664 10.367 0 23.07 3.1211 34.223 7.4688 8.3594 3.3438 15.719 7.2461 20.508 11.145 0.22266 0 0.33594 0.22266 0.55469 0.33594l-0.003906 114.92zm-6.0195-145.68c-15.605-7.1328-34.223-12.039-49.27-12.039-16.273 0-24.41-8.4727-24.633-8.6914-3.2305-3.6797-8.4727-5.0195-13.156-3.3438-4.6797 1.7852-7.6875 6.2422-7.6875 11.145v18.059c-6.1328-9.8125-9.6992-21.844-9.6992-34.777 0-33.996 24.969-61.75 55.621-61.75 30.648 0 55.621 27.754 55.621 61.75 0.007813 10.699-2.4453 20.844-6.7969 29.648zm20.625 8.25c5.4609-11.367 8.4727-24.297 8.4727-37.902 0-46.367-35-84.043-77.914-84.043s-77.914 37.676-77.914 84.043c0 9.832 1.6523 19.258 4.5547 28.039h-50.391l0.078125-0.054688-5.3711-96.684c7.3125 2.9453 17.445 5.8398 29.082 5.8398 11.789 0 25.094-2.9844 38.477-11.91 4.5352-3.0234 8.6641-5.8477 12.492-8.457 24.102-16.469 34.074-23.285 59.742-23.285h112.02c25.664 0 35.648 6.8164 59.746 23.285 3.832 2.6211 7.957 5.4336 12.488 8.457 13.391 8.9258 26.691 11.91 38.477 11.91 11.637 0 21.766-2.9023 29.082-5.8398l-5.3711 96.68 0.078124 0.054688h-34.133c0.089844-1.3672 0.33203-2.6836 0.33203-4.0703 0-33.215-25.082-60.082-55.957-60.082-29.652 0-54.176 24.969-55.73 56.621-15.262 3.4648-30.977 9.9258-42.344 17.398zm9.2539 22.516c7.4688-6.1328 21.957-12.707 36.34-16.273 6.5742-1.668 13.156-2.6758 18.949-2.6758 1.3398 0 2.5664 0 3.793-0.11328 6.9102-0.33594 12.82-1.6758 17.949-3.457v125.18c-7.3594 3.2305-20.395 8.25-32.883 8.25-12.039 0-24.297 0-35.336 2.0039-0.33594 0-0.77734 0.11328-1.1133 0.22266-2.6758 0.44922-5.2422 1.0039-7.6875 1.7852l-0.007812-114.92z"/>
 </g>
</svg>
