<?xml version="1.0" encoding="UTF-8"?>
<svg width="700pt" height="700pt" version="1.1" viewBox="0 0 700 700" xmlns="http://www.w3.org/2000/svg" xmlns:xlink="http://www.w3.org/1999/xlink">
 <g fill="white">
  <path d="m288.33 302.51c-2.418-0.003907-4.6133-1.4219-5.6055-3.625-2.8672-6.6328-2.0234-14.285 2.2227-20.129 4.25-5.8438 11.266-9.0156 18.457-8.3398 7.1914 0.67969 13.496 5.1016 16.574 11.637 0.72656 1.4961 0.81641 3.2188 0.25 4.7812-0.56641 1.5625-1.7383 2.8281-3.2539 3.5117-1.5117 0.68359-3.2383 0.72656-4.7852 0.12109-1.5469-0.60938-2.7812-1.8164-3.4219-3.3477-1.8516-4.0977-6.6719-5.918-10.766-4.0664-4.0977 1.8516-5.918 6.6719-4.0664 10.766 0.86328 1.9062 0.69922 4.1172-0.43359 5.8711-1.1367 1.7578-3.082 2.8203-5.1719 2.8203z"/>
  <path d="m315.62 373.07c-11.656-0.18359-23.188-2.4648-34.039-6.7305-3.1055-1.2422-4.6562-4.7383-3.4844-7.8711 1.1719-3.1367 4.6328-4.7617 7.793-3.6562 28.922 10.836 52.406 6.9336 71.734-11.934 2.4336-2.3789 6.332-2.3359 8.7109 0.097656 2.3789 2.4297 2.3398 6.332-0.09375 8.7109-13.285 13.684-31.551 21.398-50.621 21.383z"/>
  <path d="m392.59 560c-56.996 0.19141-112.49-18.254-158.03-52.531-45.535-34.273-78.617-82.496-94.203-137.32-15.586-54.82-12.824-113.23 7.8711-166.34 1.1953-3.0664 4.5938-4.6523 7.7109-3.5938 49.359 16.703 105.45 19.324 166.71 7.8164 1.7617-0.33203 3.5781 0.12109 4.9766 1.2383 1.4023 1.1211 2.2422 2.793 2.3086 4.582 0.64844 17.82 3.0508 35.535 7.1836 52.879 0.35156 2.0781 3.6914 10.621 44.805 20.148 0.47656 0.10547 0.93359 0.26953 1.3672 0.49219 4.2109 2.1055 6.8359 6.4492 6.7422 11.156-0.09375 4.7109-2.8867 8.9453-7.1797 10.883l-26.355 11.906c1.0391 2.168 2.0977 4.3086 3.1953 6.4492h-0.003906c19.598 38.09 47.871 71.043 82.543 96.195 34.672 25.152 74.773 41.801 117.06 48.605 4.7031 0.72656 8.5508 4.1289 9.8477 8.707 1.375 4.625-0.066406 9.6289-3.6914 12.812-25.074 22.25-54.184 39.48-85.754 50.75-27.945 10.043-57.418 15.172-87.113 15.164zm-234.93-346.28c-18.875 52.094-19.844 108.99-2.7578 161.7 17.09 52.707 51.258 98.211 97.105 129.32s100.76 46.047 156.05 42.449c55.289-3.5977 107.8-25.52 149.23-62.309l0.0625-0.16797v0.003906c-44.199-7.1133-86.113-24.512-122.35-50.801-36.238-26.289-65.789-60.73-86.27-100.54-2.1055-4.1016-4.1211-8.293-6.0508-12.566h0.003906c-0.67578-1.4883-0.72656-3.1836-0.15234-4.7109 0.57812-1.5273 1.7383-2.7656 3.2305-3.4336l31.508-14.234c-34.152-8.0977-50.281-17.164-52.211-29.297v-0.003906c-3.7344-15.684-6.1016-31.66-7.0781-47.754-58.363 10.051-112.23 7.4727-160.32-7.6484z"/>
  <path d="m453.57 319.75h-24.617 0.003907c-2.4922 0-4.7383-1.5039-5.6875-3.8047-0.95313-2.3047-0.41797-4.9531 1.3477-6.7109l14.043-13.98h-9.7031c-3.3984 0-6.1562-2.7578-6.1562-6.1562s2.7578-6.1523 6.1562-6.1523h24.617-0.003906c2.4883 0.011719 4.7227 1.5195 5.6641 3.8203 0.94141 2.3008 0.40625 4.9453-1.3555 6.6953l-14.043 13.98h9.7031v0.003906c3.3984 0 6.1562 2.7539 6.1562 6.1523s-2.7578 6.1523-6.1562 6.1523z"/>
  <path d="m524.34 248.93h-43.078 0.003906c-2.4883-0.011719-4.7227-1.5195-5.6641-3.8203-0.94141-2.3008-0.41016-4.9453 1.3555-6.6953l32.504-32.344-28.195-0.003906c-3.4023 0-6.1562-2.7539-6.1562-6.1523 0-3.3984 2.7539-6.1523 6.1562-6.1523h43.078-0.003906c2.4883 0.011719 4.7227 1.5195 5.6641 3.8203 0.94141 2.3008 0.40625 4.9414-1.3555 6.6953l-32.504 32.344h28.168-0.003906c3.3984 0 6.1562 2.7539 6.1562 6.1523 0 3.4023-2.7578 6.1562-6.1562 6.1562z"/>
  <path d="m250.47 227.41c-36.328 0.3125-72.418-5.9062-106.55-18.363-1.5859-0.59375-2.8594-1.8125-3.5195-3.3711-0.66016-1.5625-0.64453-3.3242 0.035156-4.875 17.633-39.91 44.008-75.344 77.176-103.69 33.168-28.344 72.281-48.871 114.45-60.066 0.078125-9.918 4.082-19.402 11.137-26.375 7.0508-6.9727 16.582-10.863 26.5-10.824 9.918 0.039063 19.418 4.0039 26.414 11.035 7 7.0273 10.93 16.539 10.93 26.457-0.003906 9.918-3.9336 19.434-10.938 26.457-7 7.0273-16.5 10.992-26.418 11.027-21.617 42.785-32.91 90.035-32.977 137.97 0 2.9258-2.0586 5.4453-4.9258 6.0312-26.75 5.5742-53.992 8.4531-81.316 8.5859zm-96-27.66c50.277 17.312 107.42 20 170.02 8v-0.003906c0.86719-49.527 13.238-98.172 36.137-142.1 1.1758-2.2578 3.6211-3.5547 6.1523-3.2656 6.9844 0.76953 13.969-1.418 19.266-6.0352 5.2969-4.6172 8.4141-11.242 8.6016-18.266 0.1875-7.0195-2.5742-13.801-7.6133-18.695-5.043-4.8945-11.902-7.4492-18.918-7.0547-7.0156 0.39844-13.543 3.7148-17.996 9.1484-4.457 5.4297-6.4375 12.48-5.457 19.438 0.43359 3.1211-1.5625 6.0625-4.6211 6.8164-40.297 9.9336-77.867 28.734-109.98 55.035-32.105 26.297-57.941 59.43-75.617 96.977z"/>
 </g>
</svg>
